<?xml version="1.0" encoding="UTF-8"?>
<svg width="32px" height="32px" viewBox="0 0 32 32" version="1.1" xmlns="http://www.w3.org/2000/svg">
    <title>OpenAI Image Generator</title>
    <defs>
        <linearGradient id="gradient" x1="0%" y1="0%" x2="100%" y2="100%">
            <stop offset="0%" style="stop-color:#10a37f;stop-opacity:1" />
            <stop offset="100%" style="stop-color:#0e8a6c;stop-opacity:1" />
        </linearGradient>
    </defs>
    <g stroke="none" stroke-width="1" fill="none" fill-rule="evenodd">
        <!-- Background Circle -->
        <circle cx="16" cy="16" r="15" fill="url(#gradient)"/>
        
        <!-- OpenAI Logo -->
        <path d="M22.2819,13.8211 C22.5610,12.9241 22.5610,11.9671 22.2819,11.0701 L19.9356,5.5241 C19.6571,4.6261 19.0998,4.0691 18.4019,4.0691 L13.5088,4.0691 C12.8115,4.0691 12.2542,4.6261 11.9751,5.5241 L11.6557,6.4211 L10.3770,4.0691 L8.4180,4.0691 L7.1393,6.4211 L6.8199,5.5241 C6.5414,4.6261 5.9841,4.0691 5.2862,4.0691 L0.3932,4.0691 C-0.3041,4.0691 -0.8614,4.6261 -1.1405,5.5241 L-3.4868,11.0701 C-3.7659,11.9671 -3.7659,12.9241 -3.4868,13.8211 L-3.1674,14.7181 L-4.4461,17.0701 L-2.4871,17.0701 L-1.2084,14.7181 L-1.5278,13.8211 C-1.8063,12.9241 -1.8063,11.9671 -1.5278,11.0701 L0.8185,5.5241 C1.0976,4.6261 1.6549,4.0691 2.3528,4.0691 L7.2458,4.0691 C7.9431,4.0691 8.5004,4.6261 8.7795,5.5241 L9.0989,6.4211 L10.3776,4.0691 L12.3366,4.0691 L13.6153,6.4211 L13.9347,5.5241 C14.2132,4.6261 14.7705,4.0691 15.4684,4.0691 L20.3614,4.0691 C21.0587,4.0691 21.6160,4.6261 21.8951,5.5241 L24.2414,11.0701 C24.5205,11.9671 24.5205,12.9241 24.2414,13.8211 L21.8951,19.3671 C21.6160,20.2651 21.0587,20.8221 20.3614,20.8221 L15.4684,20.8221 C14.7705,20.8221 14.2132,20.2651 13.9347,19.3671 L13.6153,18.4701 L12.3366,20.8221 L10.3776,20.8221 L9.0989,18.4701 L8.7795,19.3671 C8.5004,20.2651 7.9431,20.8221 7.2458,20.8221 L2.3528,20.8221 C1.6549,20.8221 1.0976,20.2651 0.8185,19.3671 L-1.5278,13.8211 C-1.8063,12.9241 -1.8063,11.9671 -1.5278,11.0701 L-1.2084,10.1731 L-2.4871,7.8211 L-4.4461,7.8211 L-3.1674,10.1731 L-3.4868,11.0701 C-3.7659,11.9671 -3.7659,12.9241 -3.4868,13.8211 L-1.1405,19.3671 C-0.8614,20.2651 -0.3041,20.8221 0.3932,20.8221 L5.2862,20.8221 C5.9841,20.8221 6.5414,20.2651 6.8199,19.3671 L7.1393,18.4701 L8.4180,20.8221 L10.3770,20.8221 L11.6557,18.4701 L11.9751,19.3671 C12.2542,20.2651 12.8115,20.8221 13.5088,20.8221 L18.4019,20.8221 C19.0998,20.8221 19.6571,20.2651 19.9356,19.3671 L22.2819,13.8211 Z" fill="#FFFFFF" fill-rule="nonzero" transform="translate(10.377, 12.446) scale(0.5) translate(-10.377, -12.446)"/>
        
        <!-- Image Frame -->
        <rect x="9" y="22" width="14" height="3" rx="1" fill="#FFFFFF"/>
        <rect x="9" y="22" width="14" height="1" rx="0.5" fill="#FFFFFF" opacity="0.7"/>
        
        <!-- Camera Lens -->
        <circle cx="16" cy="14" r="4" fill="#FFFFFF"/>
        <circle cx="16" cy="14" r="3" fill="url(#gradient)"/>
        <circle cx="14.5" cy="12.5" r="1" fill="#FFFFFF" opacity="0.7"/>
    </g>
</svg>
